<?xml version="1.0" encoding="UTF-8"?>
<svg viewBox="0 0 700 700" xmlns="http://www.w3.org/2000/svg" xmlns:xlink="http://www.w3.org/1999/xlink">

 <g>
  <path d="m350.56 431.2c0-4.4805 3.3594-8.3984 7.8398-8.9609 4.4805-0.55859 8.3984 3.3594 8.9609 7.8398 0.55859 4.4805-3.3594 8.3984-7.8398 8.9609h-0.55859c-4.4805 0-8.4023-3.3594-8.4023-7.8398zm-26.879 5.6016c-4.4805-1.1211-7.2812-5.6016-6.7188-10.078 1.1211-4.4805 5.6016-7.2812 10.078-6.7188 4.4805 1.1211 7.2812 5.6016 6.7188 10.078-0.55859 3.9219-4.4805 6.7188-8.3984 6.7188-0.55859 0.55859-1.1211 0-1.6797 0zm59.922-10.082c-1.6797-4.4805 0.55859-8.9609 5.0391-10.641s8.9609 0.55859 10.641 5.0391c1.6797 4.4805-0.55859 8.9609-5.0391 10.641-1.1211 0.55859-1.6797 0.55859-2.8008 0.55859-3.3633 0.003906-6.7227-2.2383-7.8398-5.5977zm-93.523-1.6797c-3.9219-2.2383-5.6016-7.2812-3.3594-11.199 2.2383-3.9219 7.2812-5.6016 11.199-3.3594 3.9219 2.2383 5.6016 7.2812 3.3594 11.199-1.6797 2.8008-4.4805 4.4805-7.2812 4.4805-1.6758 0-2.7969-0.55859-3.918-1.1211zm124.32-11.758c-2.8008-3.9219-1.6797-8.9609 1.6797-11.762 3.9219-2.8008 8.9609-1.6797 11.762 1.6797 2.8008 3.9219 1.6797 8.9609-2.2383 11.762-1.6797 1.1211-3.3594 1.6797-5.0391 1.6797-1.6836 0-4.4844-1.1211-6.1641-3.3594zm-154-8.9609c-3.3594-3.3594-3.3594-8.3984-0.55859-11.762 3.3594-3.3594 8.3984-3.3594 11.762-0.55859 3.3594 3.3594 3.3594 8.3984 0.55859 11.762-1.6797 1.6797-3.9219 2.8008-6.1602 2.8008-1.6797-0.003906-3.9219-0.5625-5.6016-2.2422zm180.32-12.32c-3.9219-2.8008-4.4805-8.3984-1.1211-11.762 2.8008-3.3594 8.3984-4.4805 11.762-1.1211 3.3594 2.8008 3.9219 8.3984 1.1211 11.762-1.6797 2.2383-3.9219 2.8008-6.7188 2.8008-1.6836 0-3.9219-0.55859-5.043-1.6797zm-202.72-15.121c-2.2383-3.9219-1.1211-8.9609 2.8008-11.762 3.9219-2.2383 8.9609-1.1211 11.762 2.8008 2.2383 3.9219 1.1211 8.9609-2.8008 11.762-1.1211 0.55859-2.8008 1.1211-4.4805 1.1211-3.3594 0-6.1602-1.1211-7.2812-3.9219zm221.76-12.32c-4.4805-1.6797-6.1602-6.7188-4.4805-11.199s6.7188-6.1602 11.199-4.4805c4.4805 1.6797 6.1602 6.7188 4.4805 11.199-1.1211 3.3594-4.4805 5.0391-7.8398 5.0391-1.1211 0.003906-2.2422 0.003906-3.3594-0.55859zm-236.32-20.719c-1.1211-4.4805 1.1211-8.9609 5.6016-10.078 4.4805-1.1211 8.9609 1.1211 10.641 5.6016 1.1211 4.4805-1.1211 8.9609-5.6016 10.641-0.55859 0-1.6797 0.55859-2.2383 0.55859-3.9219-0.5625-7.2852-2.8008-8.4023-6.7227zm247.52-11.199c-4.4805-0.55859-7.8398-5.0391-7.2812-9.5195 0.55859-4.4805 5.0391-7.8398 9.5195-7.2812s7.8398 5.0391 7.2812 9.5195c-0.55859 4.4805-4.4805 7.2812-8.3984 7.2812-0.5625 0.55859-0.5625 0-1.1211 0zm-252.56-24.082v0c0-5.0391 3.9219-8.9609 8.3984-8.9609 4.4805 0 8.3984 3.9219 8.3984 8.3984 0 4.4805-3.9219 8.3984-8.3984 8.3984-4.4766 0.56641-8.3984-3.3555-8.3984-7.8359zm245.28-16.238c-0.55859-4.4805 2.8008-8.9609 7.2812-9.5195 4.4805-0.55859 8.9609 2.8008 9.5195 7.2812 0.55859 4.4805-2.8008 8.9609-7.2812 9.5195h-1.1211c-4.4766 0-7.8398-3.3633-8.3984-7.2812zm-234.64-9.5195c-4.4805-1.1211-7.2812-5.6016-5.6016-10.641 1.1211-4.4805 5.6016-7.2812 10.078-5.6016 4.4805 1.1211 7.2812 6.1602 5.6016 10.641-1.1211 3.9219-4.4805 6.1602-7.8398 6.1602-0.55859 0-1.6758-0.55859-2.2383-0.55859zm226.24-20.723c-1.6797-4.4805 0-8.9609 4.4805-11.199 4.4805-1.6797 9.5195 0 11.199 4.4805 1.6797 4.4805 0 8.9609-4.4805 11.199-1.1211 0.55859-2.2383 0.55859-3.3594 0.55859-3.3594 0.003906-6.7227-1.6758-7.8398-5.0391zm-215.04-11.199c-3.9219-2.2383-5.0391-7.2812-2.8008-11.762 2.2383-3.9219 7.8398-5.0391 11.762-2.8008 3.9219 2.2383 5.0391 7.8398 2.8008 11.762-1.6797 2.8008-4.4805 3.9219-7.2812 3.9219-1.6797 0.55859-2.7969 0-4.4805-1.1211zm198.8-15.68c-2.8008-3.3594-2.2383-8.9609 1.1211-11.762s8.9609-2.2383 11.762 1.1211 2.2383 8.9609-1.1211 11.762c-1.6797 1.1211-3.3594 1.6797-5.6016 1.6797-2.2383 0.55859-4.4805-0.55859-6.1602-2.8008zm-179.2-11.758c-3.3594-3.3594-2.8008-8.3984 0.55859-11.762 3.3594-3.3594 8.9609-2.8008 11.762 0.55859 3.3594 3.3594 2.8008 8.9609-0.55859 11.762-1.6797 1.6797-3.9219 2.2383-5.6016 2.2383-2.2383 0-4.4805-0.55859-6.1602-2.7969zm156.24-9.5195c-3.9219-2.8008-4.4805-7.8398-2.2383-11.762 2.8008-3.9219 7.8398-4.4805 11.762-2.2383 3.9219 2.8008 4.4805 7.8398 2.2383 11.762-1.6797 2.2383-4.4805 3.3594-6.7188 3.3594-1.6797 0.55859-3.3594-0.003907-5.043-1.1211zm-130.48-11.203c-2.2383-3.9219-0.55859-8.9609 3.3594-11.199 3.9219-2.2383 8.9609-0.55859 11.199 3.3594 2.2383 3.9219 0.55859 8.9609-3.3594 11.199-1.1211 0.55859-2.8008 1.1211-3.9219 1.1211-2.8008 0-5.5977-1.6797-7.2773-4.4805zm102.48-2.7969c-4.4805-1.6797-6.7188-6.1602-5.0391-10.641 1.6797-4.4805 6.1602-6.7188 10.641-5.0391 4.4805 1.6797 6.7188 6.1602 5.0391 10.641-1.1211 3.3594-4.4805 5.6016-7.8398 5.6016-0.55859-0.003906-1.6797-0.5625-2.8008-0.5625zm-71.68-10.641c-1.1211-4.4805 1.6797-8.9609 6.7188-10.078 4.4805-1.1211 8.9609 2.2383 10.078 6.7188 1.1211 4.4805-2.2383 8.9609-6.7188 10.078h-1.6797c-3.918 0-7.2773-2.8008-8.3984-6.7188zm41.441 3.918c-4.4805-0.55859-8.3984-4.4805-7.8398-8.9609 0-4.4805 4.4805-7.8398 8.9609-7.8398 4.4805 0 8.3984 4.4805 7.8398 8.9609-0.5625 4.4805-3.9219 7.8398-8.9609 7.8398z"/>
  <path d="m350 467.6c-87.922 0-159.6-71.68-159.6-159.6s71.68-159.6 159.6-159.6 159.6 71.68 159.6 159.6-71.68 159.6-159.6 159.6zm0-302.4c-78.961 0-142.8 63.84-142.8 142.8s63.84 142.8 142.8 142.8 142.8-63.84 142.8-142.8-63.84-142.8-142.8-142.8z"/>
  <path d="m407.68 319.2c10.641-23.52 14-47.602 7.8398-64.398-7.2812-19.602-30.238-38.641-65.52-35.84-0.55859 0-63.84 5.6016-65.52 29.121-0.55859 7.2812 4.4805 12.879 12.32 16.801-2.8008 9.5195-2.8008 18.48-2.2383 22.961l-12.32 23.52c-1.1211 2.2383-1.1211 4.4805-0.55859 6.7188 0.55859 2.2383 2.2383 3.9219 4.4805 5.0391l8.3984 3.9219c0.55859 11.199-2.2383 23.52-2.2383 23.52-1.1211 4.4805 1.1211 8.3984 5.6016 10.078 2.2383 0.55859 9.5195 2.2383 18.48 2.2383 2.2383 0 5.0391 0 7.2812-0.55859 1.1211 5.6016 1.6797 20.719 2.2383 33.602 0 3.3594 2.2383 6.7188 5.6016 7.8398 1.1133-0.5625 1.6719-0.5625 2.793-0.5625 2.2383 0 5.0391-1.1211 6.7188-2.8008 22.961-27.441 64.961-38.641 65.52-39.199 2.8008-0.55859 5.0391-2.8008 5.6016-5.6016 1.1211-2.8008 0.55859-5.6016-1.6797-7.8398 0 0.003907-10.082-12.879-2.8008-28.559zm-56-84c30.238-2.2383 44.801 14.559 48.16 25.199 4.4805 12.32 1.6797 32.48-7.2812 51.52 0 0.55859 0 0.55859-0.55859 1.1211l-5.6016-2.2383c2.8008-6.1602 3.3594-12.32 1.6797-17.922-1.6797-6.7188-6.7188-11.762-12.879-13.441-5.6016-1.1211-14-0.55859-24.641 9.5195 0.55859-5.0391 0-11.762-3.3594-17.359-1.6797-2.8008-3.9219-6.1602-7.8398-8.9609 7.2812-1.6797 15.68-3.3594 24.078-2.2383 4.4805 0.55859 8.9609-2.8008 9.5195-7.2812 0.55859-4.4805-2.8008-8.9609-7.2812-9.5195-24.641-2.8008-48.719 9.5195-49.84 10.078 0 0-0.55859 0-0.55859 0.55859-7.2812-2.2383-11.199-3.9219-12.879-5.0391 6.7227-5.0352 28.562-12.316 49.281-13.996zm-9.5195 140c-0.55859-8.9609-1.1211-14-2.2383-17.922 7.2812-3.3594 14-8.3984 18.48-16.238 2.2383-3.9219 0.55859-8.9609-3.9219-11.199-3.9219-2.2383-8.9609-0.55859-11.199 3.9219-6.1602 11.762-22.961 12.32-33.039 11.199 1.1211-6.7188 1.6797-16.801 0.55859-25.762-0.55859-2.8008-2.2383-5.0391-5.0391-6.1602l-4.4805-2.2383 4.4805-8.3984h11.762c4.4805 0 8.3984-3.9219 8.3984-8.3984 0-4.4805-3.9219-8.3984-8.3984-8.3984h-6.1602c0-3.3594 0-8.9609 1.6797-15.121 3.3594 0.55859 6.1602 1.6797 9.5195 2.2383 5.0391 1.1211 8.3984 3.3594 10.641 6.7188 2.8008 5.0391 1.1211 11.762 0 14-1.6797 4.4805 0.55859 8.9609 4.4805 10.641l11.199 4.4805c3.3594 1.1211 7.2812 0.55859 9.5195-2.2383 7.8398-8.9609 12.32-10.078 12.879-10.078 0 0 0.55859 1.1211 0.55859 3.3594s-1.1211 8.9609-9.5195 16.238c-3.3594 2.8008-3.9219 8.3984-0.55859 11.762 1.6797 1.6797 3.9219 2.8008 6.1602 2.8008 1.6797 0 3.9219-0.55859 5.6016-2.2383 1.1211-1.1211 2.2383-1.6797 2.8008-2.8008l11.199 3.9219c0 7.2812 1.1211 14 3.3594 18.48-11.203 4.4688-31.363 13.43-48.723 27.43z"/>
  <use x="70" y="644" xlink:href="#v"/>
  <use x="90.550781" y="644" xlink:href="#c"/>
  <use x="104.359375" y="644" xlink:href="#a"/>
  <use x="123.347656" y="644" xlink:href="#l"/>
  <use x="142.242188" y="644" xlink:href="#b"/>
  <use x="155.628906" y="644" xlink:href="#a"/>
  <use x="174.617188" y="644" xlink:href="#k"/>
  <use x="204.410156" y="644" xlink:href="#j"/>
  <use x="224.453125" y="644" xlink:href="#i"/>
  <use x="252.453125" y="644" xlink:href="#e"/>
  <use x="271.550781" y="644" xlink:href="#u"/>
  <use x="281.148438" y="644" xlink:href="#h"/>
  <use x="290.746094" y="644" xlink:href="#h"/>
  <use x="310.09375" y="644" xlink:href="#e"/>
  <use x="329.191406" y="644" xlink:href="#a"/>
  <use x="348.179688" y="644" xlink:href="#a"/>
  <use x="367.171875" y="644" xlink:href="#g"/>
  <use x="387.105469" y="644" xlink:href="#f"/>
  <use x="403.703125" y="644" xlink:href="#t"/>
  <use x="70" y="672" xlink:href="#s"/>
  <use x="82.183594" y="672" xlink:href="#c"/>
  <use x="95.992188" y="672" xlink:href="#d"/>
  <use x="115.226562" y="672" xlink:href="#r"/>
  <use x="154.152344" y="672" xlink:href="#b"/>
  <use x="167.535156" y="672" xlink:href="#q"/>
  <use x="187.46875" y="672" xlink:href="#a"/>
  <use x="216.207031" y="672" xlink:href="#p"/>
  <use x="239.640625" y="672" xlink:href="#d"/>
  <use x="258.878906" y="672" xlink:href="#o"/>
  <use x="278.8125" y="672" xlink:href="#g"/>
  <use x="308.492188" y="672" xlink:href="#n"/>
  <use x="329.015625" y="672" xlink:href="#c"/>
  <use x="342.820312" y="672" xlink:href="#d"/>
  <use x="362.058594" y="672" xlink:href="#m"/>
  <use x="371.65625" y="672" xlink:href="#a"/>
  <use x="390.648438" y="672" xlink:href="#f"/>
  <use x="407.242188" y="672" xlink:href="#b"/>
 </g>
</svg>
