<?xml version="1.0" encoding="UTF-8"?>
<svg viewBox="0 0 700 700" xmlns="http://www.w3.org/2000/svg" xmlns:xlink="http://www.w3.org/1999/xlink">

 <g>
  <path d="m314.16 257.6c3.9219 2.2383 8.9609 1.1211 11.762-2.8008 0-0.55859 4.4805-7.2812 12.879-7.2812 3.9219 0 6.7188 1.6797 11.199 4.4805s10.078 6.7188 17.359 6.7188h1.6797c12.32 0 21.84-9.5195 25.762-15.68 2.2383-3.9219 1.1211-8.9609-2.2383-11.762-3.9219-2.2383-8.9609-1.1211-11.762 2.2383 0 0-5.6016 8.3984-12.32 7.8398h-0.55859c-2.2383 0-4.4805-1.1211-8.3984-3.9219-4.4805-3.3594-11.199-7.8398-20.719-7.8398-14 0-23.52 10.078-26.879 15.68-2.8047 5.0469-1.6875 10.086 2.2344 12.328z"/>
  <path d="m439.04 253.68c-0.55859-1.1211-1.1211-1.6797-2.2383-2.8008-0.55859-0.55859-1.1211-1.1211-2.2383-1.1211h-0.55859-1.6797-0.55859-2.2383c-0.55859 0-1.1211 0.55859-1.6797 0.55859h-0.55859c-0.55859 0-0.55859 0-1.1211 0.55859h-0.55859-0.55859c-8.3984 5.0391-31.922 15.68-31.922 31.359 0.55859 5.0391-3.3594 13.441-6.1602 17.359-2.2383 2.8008-6.1602 3.3594-7.2812 3.3594h-1.1211-15.68c2.2383-15.121 1.6797-30.238-9.5195-33.602-7.2812-2.2383-19.602-6.7188-24.641 2.2383-1.6797 2.8008-1.6797 5.6016-0.55859 8.3984l9.5195 3.9219c1.1211 0.55859 1.6797 1.1211 1.6797 2.2383 0.55859 1.1211 0 2.8008-1.1211 3.9219 0 0-6.7188 3.9219-9.5195 12.879 0 0.55859-0.55859 0.55859-0.55859 0.55859h-7.8398-1.1211c-1.1211 0-5.0391-0.55859-7.2812-3.3594-3.3594-3.3594-6.7188-12.32-6.1602-17.359-0.55859-15.121-23.52-26.32-31.922-31.359h-0.55859s-0.55859 0-1.1211-0.55859h-0.55859c-0.55859 0-1.1211-0.55859-1.6797-0.55859h-2.2383-0.55859-1.6797-0.55859c-0.55859 0-1.1211 0.55859-2.2383 1.1211-1.1211 1.1211-1.6797 1.6797-2.2383 2.8008-1.1211 2.8008-0.55859 5.0391 0.55859 7.8398l16.238 28.559c-2.8008 14.559 7.8398 43.121 38.078 50.961 0.55859 2.8008 1.1211 5.6016 2.2383 7.8398l-19.605 8.9648h-0.55859l-15.121-24.641c-2.2383-3.9219-7.8398-5.0391-11.762-2.8008s-5.0391 7.8398-2.8008 11.762l28 44.801c1.6797 2.8008 4.4805 3.9219 7.2812 3.9219 1.6797 0 2.8008-0.55859 4.4805-1.1211 3.9219-2.2383 5.0391-7.8398 2.8008-11.762l-3.3594-5.6016 17.922-7.8398c0.55859 1.1211 1.6797 2.2383 2.2383 3.3594l-8.9609 11.762c-2.2383 2.8008-2.2383 6.7188-0.55859 9.5195 0.55859 0.55859 11.762 17.922 31.922 17.922 20.16 0 31.922-16.801 32.48-17.359 2.2383-2.8008 2.2383-7.2812 0-10.078l-8.9609-11.762c1.1211-1.1211 1.6797-2.8008 2.8008-4.4805l17.922 8.3984-3.9219 5.6016c-2.2383 3.9219-1.1211 8.9609 2.8008 11.762 1.1211 1.1211 2.8008 1.1211 4.4805 1.1211 2.8008 0 5.6016-1.1211 7.2812-3.9219l28-44.801c2.2383-3.9219 1.1211-8.9609-2.8008-11.762-3.9219-2.2383-8.9609-1.1211-11.762 2.8008l-15.688 25.199-20.16-9.5195c0.55859-2.2383 1.1211-5.0391 1.6797-7.2812 30.238-8.3984 41.441-36.398 38.078-50.961l16.238-28.559c1.125-2.7969 2.2461-5.5977 1.125-8.3984zm-89.039 113.68c-15.121-7.8398-19.602-32.48-20.16-48.16h40.32c-0.55859 14-4.4805 40.32-20.16 48.16z"/>
  <path d="m350.56 431.2c0-4.4805 3.3594-8.3984 7.8398-8.9609 4.4805-0.55859 8.3984 3.3594 8.9609 7.8398 0.55859 4.4805-3.3594 8.3984-7.8398 8.9609h-0.55859c-4.4805 0-8.4023-3.3594-8.4023-7.8398zm-26.879 5.6016c-4.4805-1.1211-7.2812-5.6016-6.7188-10.078 1.1211-4.4805 5.6016-7.2812 10.078-6.7188 4.4805 1.1211 7.2812 5.6016 6.7188 10.078-0.55859 3.9219-4.4805 6.7188-8.3984 6.7188-0.55859 0.55859-1.1211 0-1.6797 0zm59.922-10.082c-1.6797-4.4805 0.55859-8.9609 5.0391-10.641s8.9609 0.55859 10.641 5.0391c1.6797 4.4805-0.55859 8.9609-5.0391 10.641-1.1211 0.55859-1.6797 0.55859-2.8008 0.55859-3.3633 0.003906-6.7227-2.2383-7.8398-5.5977zm-93.523-1.6797c-3.9219-2.2383-5.6016-7.2812-3.3594-11.199 2.2383-3.9219 7.2812-5.6016 11.199-3.3594 3.9219 2.2383 5.6016 7.2812 3.3594 11.199-1.6797 2.8008-4.4805 4.4805-7.2812 4.4805-1.6758 0-2.7969-0.55859-3.918-1.1211zm124.32-11.758c-2.8008-3.9219-1.6797-8.9609 1.6797-11.762 3.9219-2.8008 8.9609-1.6797 11.762 1.6797 2.8008 3.9219 1.6797 8.9609-2.2383 11.762-1.6797 1.1211-3.3594 1.6797-5.0391 1.6797-1.6836 0-4.4844-1.1211-6.1641-3.3594zm-154-8.9609c-3.3594-3.3594-3.3594-8.3984-0.55859-11.762 3.3594-3.3594 8.3984-3.3594 11.762-0.55859 3.3594 3.3594 3.3594 8.3984 0.55859 11.762-1.6797 1.6797-3.9219 2.8008-6.1602 2.8008-1.6797-0.003906-3.9219-0.5625-5.6016-2.2422zm180.32-12.32c-3.9219-2.8008-4.4805-8.3984-1.1211-11.762 2.8008-3.3594 8.3984-4.4805 11.762-1.1211 3.3594 2.8008 3.9219 8.3984 1.1211 11.762-1.6797 2.2383-3.9219 2.8008-6.7188 2.8008-1.6836 0-3.9219-0.55859-5.043-1.6797zm-202.72-15.121c-2.2383-3.9219-1.1211-8.9609 2.8008-11.762 3.9219-2.2383 8.9609-1.1211 11.762 2.8008 2.2383 3.9219 1.1211 8.9609-2.8008 11.762-1.1211 0.55859-2.8008 1.1211-4.4805 1.1211-3.3594 0-6.1602-1.1211-7.2812-3.9219zm221.76-12.32c-4.4805-1.6797-6.1602-6.7188-4.4805-11.199s6.7188-6.1602 11.199-4.4805c4.4805 1.6797 6.1602 6.7188 4.4805 11.199-1.1211 3.3594-4.4805 5.0391-7.8398 5.0391-1.1211 0.003906-2.2422 0.003906-3.3594-0.55859zm-236.32-20.719c-1.1211-4.4805 1.1211-8.9609 5.6016-10.078 4.4805-1.1211 8.9609 1.1211 10.641 5.6016 1.1211 4.4805-1.1211 8.9609-5.6016 10.641-0.55859 0-1.6797 0.55859-2.2383 0.55859-3.9219-0.5625-7.2852-2.8008-8.4023-6.7227zm247.52-11.199c-4.4805-0.55859-7.8398-5.0391-7.2812-9.5195 0.55859-4.4805 5.0391-7.8398 9.5195-7.2812s7.8398 5.0391 7.2812 9.5195c-0.55859 4.4805-4.4805 7.2812-8.3984 7.2812-0.5625 0.55859-0.5625 0-1.1211 0zm-252.56-24.082v0c0-5.0391 3.9219-8.9609 8.3984-8.9609 4.4805 0 8.3984 3.9219 8.3984 8.3984 0 4.4805-3.9219 8.3984-8.3984 8.3984-4.4766 0.56641-8.3984-3.3555-8.3984-7.8359zm245.28-16.238c-0.55859-4.4805 2.8008-8.9609 7.2812-9.5195 4.4805-0.55859 8.9609 2.8008 9.5195 7.2812 0.55859 4.4805-2.8008 8.9609-7.2812 9.5195h-1.1211c-4.4766 0-7.8398-3.3633-8.3984-7.2812zm-234.64-9.5195c-4.4805-1.1211-7.2812-5.6016-5.6016-10.641 1.1211-4.4805 5.6016-7.2812 10.078-5.6016 4.4805 1.1211 7.2812 6.1602 5.6016 10.641-1.1211 3.9219-4.4805 6.1602-7.8398 6.1602-0.55859 0-1.6758-0.55859-2.2383-0.55859zm226.24-20.723c-1.6797-4.4805 0-8.9609 4.4805-11.199 4.4805-1.6797 9.5195 0 11.199 4.4805 1.6797 4.4805 0 8.9609-4.4805 11.199-1.1211 0.55859-2.2383 0.55859-3.3594 0.55859-3.3594 0.003906-6.7227-1.6758-7.8398-5.0391zm-215.04-11.199c-3.9219-2.2383-5.0391-7.2812-2.8008-11.762 2.2383-3.9219 7.8398-5.0391 11.762-2.8008 3.9219 2.2383 5.0391 7.8398 2.8008 11.762-1.6797 2.8008-4.4805 3.9219-7.2812 3.9219-1.6797 0.55859-2.7969 0-4.4805-1.1211zm198.8-15.68c-2.8008-3.3594-2.2383-8.9609 1.1211-11.762s8.9609-2.2383 11.762 1.1211 2.2383 8.9609-1.1211 11.762c-1.6797 1.1211-3.3594 1.6797-5.6016 1.6797-2.2383 0.55859-4.4805-0.55859-6.1602-2.8008zm-179.2-11.758c-3.3594-3.3594-2.8008-8.3984 0.55859-11.762 3.3594-3.3594 8.9609-2.8008 11.762 0.55859 3.3594 3.3594 2.8008 8.9609-0.55859 11.762-1.6797 1.6797-3.9219 2.2383-5.6016 2.2383-2.2383 0-4.4805-0.55859-6.1602-2.7969zm156.24-9.5195c-3.9219-2.8008-4.4805-7.8398-2.2383-11.762 2.8008-3.9219 7.8398-4.4805 11.762-2.2383 3.9219 2.8008 4.4805 7.8398 2.2383 11.762-1.6797 2.2383-4.4805 3.3594-6.7188 3.3594-1.6797 0.55859-3.3594-0.003907-5.043-1.1211zm-130.48-11.203c-2.2383-3.9219-0.55859-8.9609 3.3594-11.199 3.9219-2.2383 8.9609-0.55859 11.199 3.3594 2.2383 3.9219 0.55859 8.9609-3.3594 11.199-1.1211 0.55859-2.8008 1.1211-3.9219 1.1211-2.8008 0-5.5977-1.6797-7.2773-4.4805zm102.48-2.7969c-4.4805-1.6797-6.7188-6.1602-5.0391-10.641 1.6797-4.4805 6.1602-6.7188 10.641-5.0391 4.4805 1.6797 6.7188 6.1602 5.0391 10.641-1.1211 3.3594-4.4805 5.6016-7.8398 5.6016-0.55859-0.003906-1.6797-0.5625-2.8008-0.5625zm-71.68-10.641c-1.1211-4.4805 1.6797-8.9609 6.7188-10.078 4.4805-1.1211 8.9609 2.2383 10.078 6.7188 1.1211 4.4805-2.2383 8.9609-6.7188 10.078h-1.6797c-3.918 0-7.2773-2.8008-8.3984-6.7188zm41.441 3.918c-4.4805-0.55859-8.3984-4.4805-7.8398-8.9609 0-4.4805 4.4805-7.8398 8.9609-7.8398 4.4805 0 8.3984 4.4805 7.8398 8.9609-0.5625 4.4805-3.9219 7.8398-8.9609 7.8398z"/>
  <path d="m350 467.6c-87.922 0-159.6-71.68-159.6-159.6s71.68-159.6 159.6-159.6 159.6 71.68 159.6 159.6-71.68 159.6-159.6 159.6zm0-302.4c-78.961 0-142.8 63.84-142.8 142.8s63.84 142.8 142.8 142.8 142.8-63.84 142.8-142.8-63.84-142.8-142.8-142.8z"/>
  <use x="70" y="644" xlink:href="#v"/>
  <use x="90.550781" y="644" xlink:href="#c"/>
  <use x="104.359375" y="644" xlink:href="#a"/>
  <use x="123.347656" y="644" xlink:href="#l"/>
  <use x="142.242188" y="644" xlink:href="#b"/>
  <use x="155.628906" y="644" xlink:href="#a"/>
  <use x="174.617188" y="644" xlink:href="#k"/>
  <use x="204.410156" y="644" xlink:href="#j"/>
  <use x="224.453125" y="644" xlink:href="#i"/>
  <use x="252.453125" y="644" xlink:href="#e"/>
  <use x="271.550781" y="644" xlink:href="#u"/>
  <use x="281.148438" y="644" xlink:href="#h"/>
  <use x="290.746094" y="644" xlink:href="#h"/>
  <use x="310.09375" y="644" xlink:href="#e"/>
  <use x="329.191406" y="644" xlink:href="#a"/>
  <use x="348.179688" y="644" xlink:href="#a"/>
  <use x="367.171875" y="644" xlink:href="#g"/>
  <use x="387.105469" y="644" xlink:href="#f"/>
  <use x="403.703125" y="644" xlink:href="#t"/>
  <use x="70" y="672" xlink:href="#s"/>
  <use x="82.183594" y="672" xlink:href="#c"/>
  <use x="95.992188" y="672" xlink:href="#d"/>
  <use x="115.226562" y="672" xlink:href="#r"/>
  <use x="154.152344" y="672" xlink:href="#b"/>
  <use x="167.535156" y="672" xlink:href="#q"/>
  <use x="187.46875" y="672" xlink:href="#a"/>
  <use x="216.207031" y="672" xlink:href="#p"/>
  <use x="239.640625" y="672" xlink:href="#d"/>
  <use x="258.878906" y="672" xlink:href="#o"/>
  <use x="278.8125" y="672" xlink:href="#g"/>
  <use x="308.492188" y="672" xlink:href="#n"/>
  <use x="329.015625" y="672" xlink:href="#c"/>
  <use x="342.820312" y="672" xlink:href="#d"/>
  <use x="362.058594" y="672" xlink:href="#m"/>
  <use x="371.65625" y="672" xlink:href="#a"/>
  <use x="390.648438" y="672" xlink:href="#f"/>
  <use x="407.242188" y="672" xlink:href="#b"/>
 </g>
</svg>
